<mxfile host="app.diagrams.net" modified="2021-05-19T15:14:52.140Z" agent="5.0 (Windows NT 10.0; Win64; x64) AppleWebKit/537.36 (KHTML, like Gecko) Chrome/90.0.4430.93 Safari/537.36 OPR/76.0.4017.123" etag="i-wzrKe-rn3jBszYYLCB" version="14.6.13" type="github">
  <diagram id="2kbAy7htcJqbwB_s7w2D" name="Page-1">
    <mxGraphModel dx="1235" dy="885" grid="1" gridSize="10" guides="1" tooltips="1" connect="1" arrows="1" fold="1" page="1" pageScale="1" pageWidth="827" pageHeight="1169" math="0" shadow="0">
      <root>
        <mxCell id="0" />
        <mxCell id="1" parent="0" />
        <mxCell id="ChiPFcSTtrEHKzDEM8Rk-2" value="Клиент:&lt;br&gt;клиент" style="shape=umlActor;verticalLabelPosition=bottom;verticalAlign=top;html=1;outlineConnect=0;" vertex="1" parent="1">
          <mxGeometry x="100" y="120" width="30" height="60" as="geometry" />
        </mxCell>
        <mxCell id="ChiPFcSTtrEHKzDEM8Rk-3" value="Повара:&lt;br&gt;Повара" style="shape=umlActor;verticalLabelPosition=bottom;verticalAlign=top;html=1;outlineConnect=0;" vertex="1" parent="1">
          <mxGeometry x="470" y="120" width="30" height="60" as="geometry" />
        </mxCell>
        <mxCell id="ChiPFcSTtrEHKzDEM8Rk-4" value="Готовая еда :&lt;br&gt;Готовая еда" style="ellipse;shape=umlEntity;whiteSpace=wrap;html=1;" vertex="1" parent="1">
          <mxGeometry x="560" y="120" width="80" height="80" as="geometry" />
        </mxCell>
        <mxCell id="ChiPFcSTtrEHKzDEM8Rk-5" value="Приложение:&lt;br&gt;Приложение" style="ellipse;shape=umlControl;whiteSpace=wrap;html=1;" vertex="1" parent="1">
          <mxGeometry x="330" y="120" width="70" height="80" as="geometry" />
        </mxCell>
        <mxCell id="ChiPFcSTtrEHKzDEM8Rk-7" value="" style="endArrow=none;dashed=1;html=1;startArrow=none;" edge="1" parent="1" source="ChiPFcSTtrEHKzDEM8Rk-12">
          <mxGeometry width="50" height="50" relative="1" as="geometry">
            <mxPoint x="120" y="540" as="sourcePoint" />
            <mxPoint x="120" y="220" as="targetPoint" />
          </mxGeometry>
        </mxCell>
        <mxCell id="ChiPFcSTtrEHKzDEM8Rk-8" value="" style="endArrow=none;dashed=1;html=1;startArrow=none;" edge="1" parent="1" source="ChiPFcSTtrEHKzDEM8Rk-18">
          <mxGeometry width="50" height="50" relative="1" as="geometry">
            <mxPoint x="360" y="540" as="sourcePoint" />
            <mxPoint x="360" y="220" as="targetPoint" />
          </mxGeometry>
        </mxCell>
        <mxCell id="ChiPFcSTtrEHKzDEM8Rk-10" value="" style="endArrow=none;dashed=1;html=1;exitX=0.494;exitY=-0.016;exitDx=0;exitDy=0;exitPerimeter=0;" edge="1" parent="1" source="ChiPFcSTtrEHKzDEM8Rk-28">
          <mxGeometry width="50" height="50" relative="1" as="geometry">
            <mxPoint x="600" y="540" as="sourcePoint" />
            <mxPoint x="600" y="220" as="targetPoint" />
          </mxGeometry>
        </mxCell>
        <mxCell id="ChiPFcSTtrEHKzDEM8Rk-12" value="" style="html=1;points=[];perimeter=orthogonalPerimeter;" vertex="1" parent="1">
          <mxGeometry x="110" y="250" width="20" height="50" as="geometry" />
        </mxCell>
        <mxCell id="ChiPFcSTtrEHKzDEM8Rk-13" value="" style="endArrow=none;dashed=1;html=1;startArrow=none;" edge="1" parent="1" source="ChiPFcSTtrEHKzDEM8Rk-49" target="ChiPFcSTtrEHKzDEM8Rk-12">
          <mxGeometry width="50" height="50" relative="1" as="geometry">
            <mxPoint x="120" y="720" as="sourcePoint" />
            <mxPoint x="120" y="220" as="targetPoint" />
            <Array as="points" />
          </mxGeometry>
        </mxCell>
        <mxCell id="ChiPFcSTtrEHKzDEM8Rk-18" value="" style="html=1;points=[];perimeter=orthogonalPerimeter;" vertex="1" parent="1">
          <mxGeometry x="350" y="250" width="20" height="50" as="geometry" />
        </mxCell>
        <mxCell id="ChiPFcSTtrEHKzDEM8Rk-19" value="" style="endArrow=none;dashed=1;html=1;" edge="1" parent="1" target="ChiPFcSTtrEHKzDEM8Rk-18">
          <mxGeometry width="50" height="50" relative="1" as="geometry">
            <mxPoint x="360" y="720" as="sourcePoint" />
            <mxPoint x="360" y="220" as="targetPoint" />
          </mxGeometry>
        </mxCell>
        <mxCell id="ChiPFcSTtrEHKzDEM8Rk-30" value="" style="edgeStyle=orthogonalEdgeStyle;rounded=0;orthogonalLoop=1;jettySize=auto;html=1;" edge="1" parent="1" source="ChiPFcSTtrEHKzDEM8Rk-20" target="ChiPFcSTtrEHKzDEM8Rk-24">
          <mxGeometry relative="1" as="geometry">
            <Array as="points">
              <mxPoint x="400" y="330" />
              <mxPoint x="400" y="330" />
            </Array>
          </mxGeometry>
        </mxCell>
        <mxCell id="ChiPFcSTtrEHKzDEM8Rk-20" value="" style="html=1;points=[];perimeter=orthogonalPerimeter;" vertex="1" parent="1">
          <mxGeometry x="350" y="330" width="20" height="50" as="geometry" />
        </mxCell>
        <mxCell id="ChiPFcSTtrEHKzDEM8Rk-23" value="" style="endArrow=none;dashed=1;html=1;startArrow=none;" edge="1" parent="1" source="ChiPFcSTtrEHKzDEM8Rk-24">
          <mxGeometry width="50" height="50" relative="1" as="geometry">
            <mxPoint x="479.71" y="540" as="sourcePoint" />
            <mxPoint x="479.71" y="220" as="targetPoint" />
          </mxGeometry>
        </mxCell>
        <mxCell id="ChiPFcSTtrEHKzDEM8Rk-24" value="" style="html=1;points=[];perimeter=orthogonalPerimeter;" vertex="1" parent="1">
          <mxGeometry x="470" y="330" width="20" height="50" as="geometry" />
        </mxCell>
        <mxCell id="ChiPFcSTtrEHKzDEM8Rk-25" value="" style="endArrow=none;dashed=1;html=1;startArrow=none;" edge="1" parent="1" target="ChiPFcSTtrEHKzDEM8Rk-24">
          <mxGeometry width="50" height="50" relative="1" as="geometry">
            <mxPoint x="480" y="520" as="sourcePoint" />
            <mxPoint x="479.71000000000004" y="220" as="targetPoint" />
          </mxGeometry>
        </mxCell>
        <mxCell id="ChiPFcSTtrEHKzDEM8Rk-31" value="" style="edgeStyle=orthogonalEdgeStyle;rounded=0;orthogonalLoop=1;jettySize=auto;html=1;" edge="1" parent="1" source="ChiPFcSTtrEHKzDEM8Rk-26" target="ChiPFcSTtrEHKzDEM8Rk-28">
          <mxGeometry relative="1" as="geometry">
            <Array as="points">
              <mxPoint x="530" y="470" />
              <mxPoint x="530" y="470" />
            </Array>
          </mxGeometry>
        </mxCell>
        <mxCell id="ChiPFcSTtrEHKzDEM8Rk-26" value="" style="html=1;points=[];perimeter=orthogonalPerimeter;" vertex="1" parent="1">
          <mxGeometry x="470" y="470" width="20" height="50" as="geometry" />
        </mxCell>
        <mxCell id="ChiPFcSTtrEHKzDEM8Rk-28" value="" style="html=1;points=[];perimeter=orthogonalPerimeter;" vertex="1" parent="1">
          <mxGeometry x="590" y="470" width="20" height="50" as="geometry" />
        </mxCell>
        <mxCell id="ChiPFcSTtrEHKzDEM8Rk-32" value="Курьер :&lt;br&gt;Курьер" style="shape=umlActor;verticalLabelPosition=bottom;verticalAlign=top;html=1;outlineConnect=0;" vertex="1" parent="1">
          <mxGeometry x="720" y="120" width="30" height="60" as="geometry" />
        </mxCell>
        <mxCell id="ChiPFcSTtrEHKzDEM8Rk-33" value="Форма оформления заказа" style="shape=umlBoundary;whiteSpace=wrap;html=1;" vertex="1" parent="1">
          <mxGeometry x="180" y="120" width="100" height="80" as="geometry" />
        </mxCell>
        <mxCell id="ChiPFcSTtrEHKzDEM8Rk-34" value="" style="endArrow=none;dashed=1;html=1;" edge="1" parent="1">
          <mxGeometry width="50" height="50" relative="1" as="geometry">
            <mxPoint x="240" y="720" as="sourcePoint" />
            <mxPoint x="240" y="220" as="targetPoint" />
          </mxGeometry>
        </mxCell>
        <mxCell id="ChiPFcSTtrEHKzDEM8Rk-35" value="" style="html=1;points=[];perimeter=orthogonalPerimeter;" vertex="1" parent="1">
          <mxGeometry x="230" y="250" width="20" height="50" as="geometry" />
        </mxCell>
        <mxCell id="ChiPFcSTtrEHKzDEM8Rk-36" value="" style="edgeStyle=orthogonalEdgeStyle;rounded=0;orthogonalLoop=1;jettySize=auto;html=1;entryX=-0.111;entryY=-0.004;entryDx=0;entryDy=0;entryPerimeter=0;" edge="1" parent="1" target="ChiPFcSTtrEHKzDEM8Rk-35">
          <mxGeometry relative="1" as="geometry">
            <mxPoint x="130" y="250" as="sourcePoint" />
            <mxPoint x="189.9999999999999" y="250.0044827586207" as="targetPoint" />
            <Array as="points">
              <mxPoint x="210" y="250" />
              <mxPoint x="210" y="250" />
            </Array>
          </mxGeometry>
        </mxCell>
        <mxCell id="ChiPFcSTtrEHKzDEM8Rk-37" value="" style="edgeStyle=orthogonalEdgeStyle;rounded=0;orthogonalLoop=1;jettySize=auto;html=1;" edge="1" parent="1">
          <mxGeometry relative="1" as="geometry">
            <mxPoint x="250" y="250" as="sourcePoint" />
            <mxPoint x="349" y="250" as="targetPoint" />
            <Array as="points">
              <mxPoint x="330" y="250" />
            </Array>
          </mxGeometry>
        </mxCell>
        <mxCell id="ChiPFcSTtrEHKzDEM8Rk-38" value="" style="edgeStyle=orthogonalEdgeStyle;rounded=0;orthogonalLoop=1;jettySize=auto;html=1;entryX=1.103;entryY=1.004;entryDx=0;entryDy=0;entryPerimeter=0;dashed=1;exitX=-0.118;exitY=1.006;exitDx=0;exitDy=0;exitPerimeter=0;" edge="1" parent="1" source="ChiPFcSTtrEHKzDEM8Rk-18" target="ChiPFcSTtrEHKzDEM8Rk-35">
          <mxGeometry relative="1" as="geometry">
            <mxPoint x="311" y="300" as="sourcePoint" />
            <mxPoint x="319.9999999999999" y="260.0044827586207" as="targetPoint" />
            <Array as="points">
              <mxPoint x="300" y="300" />
              <mxPoint x="300" y="300" />
            </Array>
          </mxGeometry>
        </mxCell>
        <mxCell id="ChiPFcSTtrEHKzDEM8Rk-39" value="" style="html=1;points=[];perimeter=orthogonalPerimeter;" vertex="1" parent="1">
          <mxGeometry x="470" y="400" width="20" height="40" as="geometry" />
        </mxCell>
        <mxCell id="ChiPFcSTtrEHKzDEM8Rk-40" value="Обращение к&amp;nbsp;&lt;br&gt;меню и рецептуре" style="edgeStyle=orthogonalEdgeStyle;html=1;align=left;spacingLeft=2;endArrow=block;rounded=0;entryX=1;entryY=0;dashed=1;" edge="1" target="ChiPFcSTtrEHKzDEM8Rk-39" parent="1">
          <mxGeometry relative="1" as="geometry">
            <mxPoint x="485" y="380" as="sourcePoint" />
            <Array as="points">
              <mxPoint x="515" y="380" />
            </Array>
          </mxGeometry>
        </mxCell>
        <mxCell id="ChiPFcSTtrEHKzDEM8Rk-41" value="" style="endArrow=none;dashed=1;html=1;" edge="1" parent="1">
          <mxGeometry width="50" height="50" relative="1" as="geometry">
            <mxPoint x="480" y="720" as="sourcePoint" />
            <mxPoint x="479.49999999999994" y="520" as="targetPoint" />
          </mxGeometry>
        </mxCell>
        <mxCell id="ChiPFcSTtrEHKzDEM8Rk-42" value="" style="endArrow=none;dashed=1;html=1;startArrow=none;" edge="1" parent="1" source="ChiPFcSTtrEHKzDEM8Rk-45">
          <mxGeometry width="50" height="50" relative="1" as="geometry">
            <mxPoint x="730" y="670" as="sourcePoint" />
            <mxPoint x="730" y="220" as="targetPoint" />
          </mxGeometry>
        </mxCell>
        <mxCell id="ChiPFcSTtrEHKzDEM8Rk-43" value="" style="endArrow=none;dashed=1;html=1;entryX=0.506;entryY=1.02;entryDx=0;entryDy=0;entryPerimeter=0;" edge="1" parent="1" target="ChiPFcSTtrEHKzDEM8Rk-28">
          <mxGeometry width="50" height="50" relative="1" as="geometry">
            <mxPoint x="600" y="720" as="sourcePoint" />
            <mxPoint x="599.5799999999999" y="540" as="targetPoint" />
          </mxGeometry>
        </mxCell>
        <mxCell id="ChiPFcSTtrEHKzDEM8Rk-53" value="" style="edgeStyle=orthogonalEdgeStyle;rounded=0;orthogonalLoop=1;jettySize=auto;html=1;" edge="1" parent="1" source="ChiPFcSTtrEHKzDEM8Rk-44" target="ChiPFcSTtrEHKzDEM8Rk-45">
          <mxGeometry relative="1" as="geometry">
            <Array as="points">
              <mxPoint x="650" y="550" />
              <mxPoint x="650" y="550" />
            </Array>
          </mxGeometry>
        </mxCell>
        <mxCell id="ChiPFcSTtrEHKzDEM8Rk-44" value="" style="html=1;points=[];perimeter=orthogonalPerimeter;" vertex="1" parent="1">
          <mxGeometry x="590" y="550" width="20" height="50" as="geometry" />
        </mxCell>
        <mxCell id="ChiPFcSTtrEHKzDEM8Rk-45" value="" style="html=1;points=[];perimeter=orthogonalPerimeter;" vertex="1" parent="1">
          <mxGeometry x="720" y="550" width="20" height="50" as="geometry" />
        </mxCell>
        <mxCell id="ChiPFcSTtrEHKzDEM8Rk-46" value="" style="endArrow=none;dashed=1;html=1;startArrow=none;" edge="1" parent="1" source="ChiPFcSTtrEHKzDEM8Rk-47" target="ChiPFcSTtrEHKzDEM8Rk-45">
          <mxGeometry width="50" height="50" relative="1" as="geometry">
            <mxPoint x="730" y="670" as="sourcePoint" />
            <mxPoint x="730" y="220" as="targetPoint" />
          </mxGeometry>
        </mxCell>
        <mxCell id="ChiPFcSTtrEHKzDEM8Rk-47" value="" style="html=1;points=[];perimeter=orthogonalPerimeter;" vertex="1" parent="1">
          <mxGeometry x="720" y="630" width="20" height="50" as="geometry" />
        </mxCell>
        <mxCell id="ChiPFcSTtrEHKzDEM8Rk-48" value="" style="endArrow=none;dashed=1;html=1;" edge="1" parent="1" target="ChiPFcSTtrEHKzDEM8Rk-47">
          <mxGeometry width="50" height="50" relative="1" as="geometry">
            <mxPoint x="730" y="720" as="sourcePoint" />
            <mxPoint x="730" y="600" as="targetPoint" />
          </mxGeometry>
        </mxCell>
        <mxCell id="ChiPFcSTtrEHKzDEM8Rk-49" value="" style="html=1;points=[];perimeter=orthogonalPerimeter;" vertex="1" parent="1">
          <mxGeometry x="110" y="630" width="20" height="50" as="geometry" />
        </mxCell>
        <mxCell id="ChiPFcSTtrEHKzDEM8Rk-51" value="" style="edgeStyle=orthogonalEdgeStyle;rounded=0;orthogonalLoop=1;jettySize=auto;html=1;dashed=1;exitX=-0.091;exitY=-0.008;exitDx=0;exitDy=0;exitPerimeter=0;" edge="1" parent="1" source="ChiPFcSTtrEHKzDEM8Rk-47">
          <mxGeometry relative="1" as="geometry">
            <mxPoint x="281" y="310" as="sourcePoint" />
            <mxPoint x="131" y="630" as="targetPoint" />
            <Array as="points">
              <mxPoint x="240" y="630" />
              <mxPoint x="240" y="630" />
            </Array>
          </mxGeometry>
        </mxCell>
        <mxCell id="ChiPFcSTtrEHKzDEM8Rk-55" value="1. Заполнение &lt;br&gt;формы()" style="text;html=1;strokeColor=none;fillColor=none;align=center;verticalAlign=middle;whiteSpace=wrap;rounded=0;" vertex="1" parent="1">
          <mxGeometry x="110" y="220" width="150" height="20" as="geometry" />
        </mxCell>
        <mxCell id="ChiPFcSTtrEHKzDEM8Rk-56" value="!" style="text;html=1;align=center;verticalAlign=middle;resizable=0;points=[];autosize=1;strokeColor=none;" vertex="1" parent="1">
          <mxGeometry x="150" y="280" width="20" height="20" as="geometry" />
        </mxCell>
        <mxCell id="ChiPFcSTtrEHKzDEM8Rk-57" value="2. Передача&lt;br&gt;данных()" style="text;html=1;strokeColor=none;fillColor=none;align=center;verticalAlign=middle;whiteSpace=wrap;rounded=0;" vertex="1" parent="1">
          <mxGeometry x="230" y="220" width="150" height="20" as="geometry" />
        </mxCell>
        <mxCell id="ChiPFcSTtrEHKzDEM8Rk-59" value="2. Обновление&lt;br&gt;формы()" style="text;html=1;strokeColor=none;fillColor=none;align=center;verticalAlign=middle;whiteSpace=wrap;rounded=0;" vertex="1" parent="1">
          <mxGeometry x="230" y="270" width="150" height="20" as="geometry" />
        </mxCell>
        <mxCell id="ChiPFcSTtrEHKzDEM8Rk-60" value="3. Передача&lt;br&gt;заказа&lt;br&gt;поварам()" style="text;html=1;strokeColor=none;fillColor=none;align=center;verticalAlign=middle;whiteSpace=wrap;rounded=0;" vertex="1" parent="1">
          <mxGeometry x="350" y="300" width="150" height="20" as="geometry" />
        </mxCell>
        <mxCell id="ChiPFcSTtrEHKzDEM8Rk-61" value="4. Приготовление&lt;br&gt;еды()" style="text;html=1;strokeColor=none;fillColor=none;align=center;verticalAlign=middle;whiteSpace=wrap;rounded=0;" vertex="1" parent="1">
          <mxGeometry x="470" y="440" width="150" height="20" as="geometry" />
        </mxCell>
        <mxCell id="ChiPFcSTtrEHKzDEM8Rk-62" value="5. Передача еды курьеру()" style="text;html=1;strokeColor=none;fillColor=none;align=center;verticalAlign=middle;whiteSpace=wrap;rounded=0;" vertex="1" parent="1">
          <mxGeometry x="590" y="520" width="150" height="20" as="geometry" />
        </mxCell>
        <mxCell id="ChiPFcSTtrEHKzDEM8Rk-63" value="6. Доставка еды&lt;br&gt;клиенту()" style="text;html=1;strokeColor=none;fillColor=none;align=center;verticalAlign=middle;whiteSpace=wrap;rounded=0;" vertex="1" parent="1">
          <mxGeometry x="350" y="600" width="150" height="20" as="geometry" />
        </mxCell>
      </root>
    </mxGraphModel>
  </diagram>
</mxfile>
